<?xml version="1.0" encoding="UTF-8" standalone="no"?>
<!DOCTYPE svg PUBLIC "-//W3C//DTD SVG 1.1//EN" "http://www.w3.org/Graphics/SVG/1.1/DTD/svg11.dtd">
<svg viewBox="0 0 3750 1363" version="1.1" xmlns="http://www.w3.org/2000/svg" xmlns:xlink="http://www.w3.org/1999/xlink" xml:space="preserve" xmlns:serif="http://www.serif.com/" style="fill-rule:evenodd;clip-rule:evenodd;stroke-linejoin:round;stroke-miterlimit:2;">
    <g transform="matrix(4.16667,0,0,4.16667,0,0)">
        <g transform="matrix(0.1,0,0,-0.1,0,327)">
            <path d="M1671,3068C1654,3050 1640,3032 1640,3028C1640,3024 1665,2994 1696,2960L1753,2900L2375,2900L2427,2951C2456,2979 2478,3006 2475,3010C2472,3015 2453,3037 2433,3059L2397,3100L1701,3100L1671,3068Z" style="fill:white;fill-rule:nonzero;"/>
            <path d="M2912,3063L2878,3027L2941,2964L3004,2900L3535,2900L3588,2951C3616,2979 3640,3008 3640,3015C3640,3023 3624,3045 3605,3065L3569,3100L2945,3098L2912,3063Z" style="fill:white;fill-rule:nonzero;"/>
            <path d="M4194,3100L4126,3030L4196,2965L4265,2900L4835,2900L4898,2956L4961,3013L4919,3056L4876,3100L4194,3100Z" style="fill:white;fill-rule:nonzero;"/>
            <path d="M5277,3062C5257,3041 5240,3020 5240,3015C5240,3009 5263,2981 5290,2953L5340,2900L5630,2900L5672,2938C5696,2958 5717,2978 5718,2983C5725,2998 5769,2989 5783,2969C5791,2958 5813,2938 5831,2924C5862,2901 5871,2900 6007,2900L6150,2900L6262,3006L6214,3053L6165,3100L5314,3100L5277,3062Z" style="fill:white;fill-rule:nonzero;"/>
            <path d="M257,3021L210,2971L210,2354L290,2276L327,2311C386,2366 420,2404 421,2415L421,2684C420,2827 420,2948 420,2952C420,2963 320,3070 310,3070C306,3070 282,3048 257,3021Z" style="fill:white;fill-rule:nonzero;"/>
            <path d="M1076,3020L1030,2971L1030,2411L1086,2351C1117,2317 1147,2290 1154,2290C1160,2290 1182,2304 1203,2321L1240,2351L1240,2970L1188,3020C1159,3047 1132,3070 1129,3070C1125,3070 1102,3048 1076,3020Z" style="fill:white;fill-rule:nonzero;"/>
            <path d="M4050,2962L4019,2933L4020,2634L4020,2335L4050,2308C4066,2292 4085,2280 4092,2280C4107,2281 4161,2329 4203,2379L4230,2412L4230,2850L4173,2911C4094,2994 4088,2996 4050,2962Z" style="fill:white;fill-rule:nonzero;"/>
            <path d="M1542,2943L1509,2905L1511,2645C1512,2366 1517,2330 1561,2298L1587,2278L1653,2344L1720,2409L1720,2856L1657,2918C1623,2952 1590,2980 1584,2980C1579,2980 1560,2963 1542,2943Z" style="fill:white;fill-rule:nonzero;"/>
            <path d="M2790,2938L2755,2907L2752,2626L2749,2346L2786,2313C2828,2276 2825,2275 2903,2352L2950,2399L2950,2867L2896,2919C2866,2947 2837,2970 2833,2970C2828,2970 2809,2956 2790,2938Z" style="fill:white;fill-rule:nonzero;"/>
            <path d="M3631,2914L3570,2858L3570,2404L3698,2278L3734,2310L3770,2343L3770,2621C3770,2896 3770,2899 3748,2922C3696,2975 3697,2976 3631,2914Z" style="fill:white;fill-rule:nonzero;"/>
            <path d="M4930,2905L4875,2849L4877,2642C4879,2528 4880,2427 4880,2416C4880,2396 4978,2290 4997,2290C5004,2290 5025,2304 5045,2321L5080,2352L5080,2896L5047,2928C5029,2946 5007,2960 4999,2960C4991,2960 4960,2935 4930,2905Z" style="fill:white;fill-rule:nonzero;"/>
            <path d="M5687,2872L5640,2824L5640,2353L5685,2311C5709,2289 5735,2270 5742,2270C5749,2270 5775,2288 5800,2310L5845,2350L5848,2588L5851,2825L5806,2873C5781,2899 5754,2920 5747,2920C5740,2920 5713,2898 5687,2872Z" style="fill:white;fill-rule:nonzero;"/>
            <path d="M6441,2869C6428,2864 6343,2785 6253,2695L6090,2531L6090,2009L6254,1844C6345,1754 6426,1680 6435,1680C6449,1680 6510,1736 6510,1750C6510,1753 6447,1818 6369,1895C6292,1972 6222,2047 6214,2062C6193,2103 6194,2447 6215,2478C6232,2501 6348,2619 6443,2708L6499,2760L6783,2760L6970,2575C7138,2408 7160,2390 7191,2390C7221,2390 7243,2408 7411,2576L7598,2761L7749,2758L7901,2755L8040,2612L8180,2469L8180,2064L8035,1916C7955,1835 7890,1763 7890,1757C7891,1743 7946,1680 7957,1680C7962,1680 8040,1756 8133,1848L8300,2016L8300,2523L8126,2696C7989,2832 7945,2870 7918,2875C7900,2879 7807,2880 7712,2878L7539,2875L7373,2708C7281,2615 7201,2540 7195,2540C7189,2540 7114,2610 7030,2696C6945,2782 6861,2858 6843,2866C6805,2882 6481,2885 6441,2869Z" style="fill:white;fill-rule:nonzero;"/>
            <path d="M404,2307C374,2280 350,2254 350,2249C350,2245 373,2218 401,2191L453,2140L997,2140L1049,2191C1077,2218 1100,2245 1100,2249C1100,2253 1076,2280 1048,2309L995,2361L727,2359L458,2357L404,2307Z" style="fill:white;fill-rule:nonzero;"/>
            <path d="M1695,2308C1655,2269 1644,2252 1650,2241C1664,2215 1715,2163 1737,2152C1764,2137 2312,2135 2337,2149C2347,2154 2374,2178 2398,2203L2442,2247L2387,2304L2332,2360L1748,2360L1695,2308Z" style="fill:white;fill-rule:nonzero;"/>
            <path d="M2991,2353C2984,2350 2955,2326 2927,2300L2876,2252L2929,2199L2982,2145L3257,2142L3531,2139L3588,2195L3645,2250L3588,2305L3532,2360L3268,2359C3124,2359 2999,2356 2991,2353Z" style="fill:white;fill-rule:nonzero;"/>
            <path d="M4211,2305L4158,2251L4262,2153L4442,2147C4542,2143 4672,2140 4732,2140L4841,2140L4890,2186C4918,2212 4940,2238 4940,2244C4940,2251 4916,2279 4887,2308L4834,2360L4264,2360L4211,2305Z" style="fill:white;fill-rule:nonzero;"/>
            <path d="M5691,2166L5640,2111L5640,1532L5688,1481C5714,1453 5740,1430 5746,1430C5751,1430 5775,1449 5800,1471L5845,1511L5847,1823C5849,2060 5847,2139 5837,2150C5819,2172 5760,2220 5751,2220C5746,2220 5720,2196 5691,2166Z" style="fill:white;fill-rule:nonzero;"/>
            <path d="M250,2172L210,2133L210,1524L259,1476C316,1420 323,1421 389,1497L431,1544L429,1804C429,1965 424,2073 417,2085C406,2106 306,2210 297,2210C293,2210 273,2193 250,2172Z" style="fill:white;fill-rule:nonzero;"/>
            <path d="M1102,2163C1075,2136 1048,2105 1042,2093C1034,2078 1030,1986 1030,1800L1030,1529L1076,1480C1102,1452 1128,1430 1134,1430C1140,1430 1166,1452 1193,1479L1240,1528L1240,2136L1202,2173C1181,2193 1161,2210 1157,2210C1154,2210 1129,2189 1102,2163Z" style="fill:white;fill-rule:nonzero;"/>
            <path d="M1545,2183L1515,2156L1517,1867L1519,1577L1547,1548C1561,1533 1581,1520 1589,1520C1598,1520 1631,1548 1662,1583L1719,1645L1720,1865L1720,2086L1657,2148C1623,2182 1590,2210 1585,2210C1579,2210 1562,2197 1545,2183Z" style="fill:white;fill-rule:nonzero;"/>
            <path d="M2785,2175L2750,2141L2750,1517L2795,1474C2820,1450 2843,1430 2848,1430C2852,1430 2877,1452 2904,1479L2952,1527L2950,1813L2949,2099L2894,2154C2863,2185 2834,2210 2829,2210C2823,2210 2804,2194 2785,2175Z" style="fill:white;fill-rule:nonzero;"/>
            <path d="M3631,2150L3570,2089L3570,1524L3670,1426L3697,1451C3712,1464 3734,1486 3747,1499L3770,1523L3770,2148L3739,2179C3722,2196 3705,2210 3700,2210C3696,2210 3665,2183 3631,2150Z" style="fill:white;fill-rule:nonzero;"/>
            <path d="M4053,2177L4020,2144L4020,1516L4062,1473C4085,1449 4109,1430 4115,1430C4129,1431 4205,1501 4219,1527C4231,1551 4234,1927 4222,2046C4215,2116 4213,2119 4165,2163C4137,2189 4108,2209 4100,2209C4092,2209 4070,2195 4053,2177Z" style="fill:white;fill-rule:nonzero;"/>
            <g transform="matrix(1,0,0,1,10,-10)">
                <path d="M4282,2095C4268,2064 4267,2021 4280,2000C4285,1992 4419,1856 4577,1698L4865,1410L4912,1410C5002,1410 5057,1469 5035,1542C5029,1559 4723,1870 4479,2105C4467,2116 4441,2120 4378,2120C4297,2120 4293,2119 4282,2095Z" style="fill:white;fill-rule:nonzero;"/>
            </g>
            <path d="M1700,1548C1667,1514 1640,1480 1640,1473C1640,1466 1652,1449 1667,1435L1695,1410L2365,1410L2418,1461L2471,1511L2434,1553C2413,1576 2392,1598 2386,1602C2380,1606 2237,1610 2068,1610L1761,1610L1700,1548Z" style="fill:white;fill-rule:nonzero;"/>
            <path d="M6798,1439C6788,1434 6780,1425 6780,1420C6780,1405 7175,1010 7190,1010C7198,1010 7293,1099 7402,1207C7544,1349 7600,1411 7600,1427C7600,1449 7596,1450 7528,1450L7457,1450L7330,1325C7261,1256 7198,1200 7190,1200C7182,1200 7119,1256 7050,1325L6925,1450L6870,1450C6840,1450 6807,1445 6798,1439Z" style="fill:white;fill-rule:nonzero;"/>
            <path d="M5868,1300C5853,1291 5850,1274 5850,1195C5850,1144 5847,1095 5844,1086C5839,1073 5821,1070 5755,1070C5709,1070 5665,1067 5656,1064C5642,1059 5640,1011 5640,633C5640,239 5641,206 5658,194C5672,183 5807,181 6367,180L7059,180L7103,150C7164,109 7216,109 7277,150L7321,180L8019,180C8682,180 8718,181 8733,198C8748,215 8750,259 8750,631C8750,941 8747,1049 8738,1058C8730,1066 8692,1070 8634,1070C8559,1070 8541,1073 8536,1086C8533,1095 8530,1146 8530,1200L8530,1299L8493,1306C8443,1315 8070,1302 8034,1290C8018,1285 7978,1276 7945,1271C7871,1259 7805,1242 7763,1224C7746,1216 7727,1210 7721,1210C7715,1210 7702,1206 7692,1200C7683,1195 7650,1179 7620,1165C7559,1136 7532,1121 7512,1103C7505,1096 7494,1090 7489,1090C7484,1090 7439,1048 7387,998C7294,905 7239,834 7226,793C7215,759 7173,762 7157,798C7151,813 7143,827 7140,830C7137,833 7122,854 7106,877C7058,949 6920,1072 6827,1128C6778,1156 6733,1180 6726,1180C6719,1180 6705,1187 6694,1195C6684,1203 6669,1210 6662,1210C6654,1210 6634,1216 6617,1224C6573,1242 6506,1260 6435,1271C6402,1276 6362,1284 6347,1290C6303,1305 5889,1314 5868,1300ZM6210,1190C6240,1185 6298,1177 6339,1171C6380,1165 6427,1156 6444,1151C6594,1106 6631,1093 6684,1067C6758,1032 6862,963 6910,918C6963,869 7041,764 7080,690C7113,627 7114,621 7118,489C7121,367 7120,352 7104,346C7094,342 7080,346 7070,355C7061,363 7048,370 7042,370C7036,370 7025,376 7018,383C7003,396 6960,419 6885,450C6858,461 6827,475 6818,480C6808,486 6794,490 6786,490C6778,490 6759,495 6743,502C6640,545 6356,591 6100,606C6042,610 5989,617 5983,623C5965,636 5964,1170 5982,1188C5996,1202 6125,1203 6210,1190ZM8401,1190C8419,1180 8420,1166 8420,906C8420,699 8417,630 8408,622C8401,617 8348,610 8290,607C8085,595 7850,563 7735,530C7647,505 7593,487 7563,474C7546,466 7528,460 7523,460C7509,460 7337,370 7317,352C7303,340 7295,338 7282,347C7267,356 7265,376 7266,491L7266,625L7304,695C7398,868 7536,1000 7700,1071C7714,1077 7737,1088 7752,1096C7766,1104 7785,1110 7793,1110C7801,1110 7821,1117 7836,1125C7852,1133 7875,1140 7888,1140C7901,1140 7920,1145 7930,1150C7941,1156 7982,1165 8022,1171C8062,1177 8118,1185 8145,1190C8221,1201 8379,1201 8401,1190ZM5838,948C5847,939 5850,877 5850,729C5850,549 5852,521 5867,509C5878,499 5946,492 6110,484C6235,478 6359,468 6386,462C6432,452 6493,439 6585,421C6607,417 6659,402 6700,388C6741,374 6788,359 6803,356C6823,351 6830,344 6828,332C6825,316 6787,315 6290,315L5755,315L5752,628L5750,941L5772,950C5804,962 5824,962 5838,948ZM8629,946C8637,937 8640,843 8638,624L8635,315L8090,315C7586,315 7545,316 7542,332C7540,344 7548,351 7576,356C7596,360 7625,369 7639,376C7653,384 7671,390 7679,390C7686,390 7715,397 7744,406C7835,435 7854,439 7925,451C7964,457 8018,465 8045,470C8073,474 8181,481 8285,484C8390,488 8487,496 8503,502L8530,512L8530,724C8530,876 8533,939 8542,948C8558,964 8615,963 8629,946Z" style="fill:white;fill-rule:nonzero;"/>
        </g>
        <g transform="matrix(0.0185442,-1.02799e-33,-1.02799e-33,-0.0185442,637.258,184.04)">
            <g transform="matrix(1,0,0,1,-377.477,-107.85)">
                <path d="M5943,5793C5889,5745 5822,5684 5794,5658C5716,5584 5669,5541 5633,5513C5614,5498 5600,5479 5600,5466C5600,5439 5881,5157 5923,5141C5959,5127 7687,5126 7723,5139C7760,5153 8199,5596 8206,5627C8212,5650 8200,5665 8098,5766L7983,5880L6041,5880L5943,5793Z" style="fill:rgb(153,255,153);fill-rule:nonzero;"/>
            </g>
            <g transform="matrix(1,0,0,1,323.551,-53.9252)">
                <path d="M953,5847C919,5828 793,5702 743,5638C706,5590 700,5575 707,5556C711,5543 805,5440 915,5328C1094,5146 1121,5122 1161,5112C1229,5095 2975,5094 2998,5111C3007,5118 3084,5193 3168,5278C3338,5451 3342,5461 3288,5520C3068,5763 2986,5849 2973,5854C2965,5857 2512,5860 1967,5860C1208,5859 970,5856 953,5847Z" style="fill:rgb(153,255,153);fill-rule:nonzero;"/>
            </g>
            <g transform="matrix(1,0,0,1,-377.477,-107.85)">
                <path d="M8124,5422C8041,5341 7940,5243 7898,5203C7856,5163 7819,5118 7815,5103C7811,5088 7804,4758 7801,4370C7795,3777 7797,3660 7808,3632C7823,3598 8205,3212 8240,3196C8258,3188 8272,3197 8333,3257C8373,3296 8424,3345 8448,3366C8472,3388 8506,3426 8525,3451L8560,3497L8560,4404C8561,5133 8558,5314 8548,5328C8526,5359 8296,5570 8285,5570C8280,5570 8207,5503 8124,5422Z" style="fill:rgb(153,255,153);fill-rule:nonzero;"/>
            </g>
            <g transform="matrix(1,0,0,1,323.551,-53.9252)">
                <path d="M463,5378C390,5305 326,5232 320,5217C306,5177 306,3569 321,3517C333,3474 372,3432 549,3272C612,3216 671,3170 679,3170C696,3170 1023,3487 1052,3531C1088,3587 1091,3655 1087,4340C1085,4706 1079,5023 1075,5045C1068,5078 1038,5114 861,5295C694,5465 649,5506 625,5508C598,5510 580,5496 463,5378Z" style="fill:rgb(153,255,153);fill-rule:nonzero;"/>
            </g>
            <g transform="matrix(1,0,0,1,-377.477,-107.85)">
                <path d="M5980,3563C5958,3555 5774,3372 5733,3317C5707,3281 5699,3263 5704,3245C5711,3217 5929,2990 5948,2990C5955,2990 6004,2947 6056,2895L6150,2800L6483,2799C6665,2799 7033,2797 7300,2796C7567,2794 7805,2797 7829,2802C7867,2810 7889,2827 8011,2951C8152,3093 8170,3115 8170,3146C8170,3166 7809,3534 7768,3556C7745,3568 7605,3570 6868,3569C6388,3569 5988,3566 5980,3563Z" style="fill:rgb(153,255,153);fill-rule:nonzero;"/>
            </g>
            <g transform="matrix(1,0,0,1,323.551,-53.9252)">
                <path d="M1202,3539C1154,3529 1140,3517 933,3311C808,3187 740,3113 740,3100C740,3074 998,2808 1045,2786C1074,2772 1173,2770 1922,2771C2385,2771 2773,2775 2783,2778C2803,2787 2938,2910 3107,3075C3196,3161 3230,3201 3230,3218C3230,3234 3207,3266 3161,3313C3123,3353 3059,3420 3018,3463C2948,3536 2941,3540 2899,3541C2696,3546 1227,3544 1202,3539Z" style="fill:rgb(153,255,153);fill-rule:nonzero;"/>
            </g>
            <g transform="matrix(1,0,0,1,-377.477,-107.85)">
                <path d="M5510,3089C5458,3039 5396,2980 5373,2958L5330,2918L5330,932L5426,839C5479,787 5530,737 5539,728C5547,718 5567,710 5583,710C5605,710 5637,736 5752,852C6039,1141 6074,1181 6088,1233C6104,1295 6106,2684 6089,2726C6084,2742 5983,2850 5867,2967C5704,3131 5649,3180 5630,3180C5612,3180 5577,3153 5510,3089Z" style="fill:rgb(153,255,153);fill-rule:nonzero;"/>
            </g>
            <g transform="matrix(1,0,0,1,323.551,-53.9252)">
                <path d="M3228,3090C3199,3062 3159,3027 3140,3012C3076,2961 2849,2730 2840,2705C2835,2692 2828,2360 2825,1945C2821,1334 2822,1205 2834,1177C2847,1145 3030,955 3164,833C3214,788 3241,770 3261,770C3288,770 3324,799 3493,960C3599,1060 3590,959 3587,1991L3583,2893L3494,2985C3445,3035 3393,3090 3378,3108C3337,3158 3296,3153 3228,3090Z" style="fill:rgb(153,255,153);fill-rule:nonzero;"/>
            </g>
            <g transform="matrix(1,0,0,1,-377.477,-107.85)">
                <path d="M5915,924C5785,794 5672,677 5664,664C5655,652 5651,633 5654,622C5657,612 5702,561 5754,508C5838,423 5853,412 5892,406C5964,396 7832,401 7860,412C7874,417 7951,487 8032,568C8159,693 8180,719 8180,745C8180,770 8157,799 8039,920C7962,1000 7878,1086 7853,1113L7807,1160L6152,1160L5915,924Z" style="fill:rgb(153,255,153);fill-rule:nonzero;"/>
            </g>
            <g transform="matrix(1,0,0,1,323.551,-53.9252)">
                <path d="M1149,1133L1084,1129L914,957C820,862 735,773 726,757C709,732 709,728 724,707C733,695 751,669 764,650C794,604 996,402 1035,379C1064,361 1107,360 1973,360C2741,360 2885,362 2909,374C2954,398 3200,658 3200,683C3200,697 3131,774 2985,920L2770,1135L1993,1136C1565,1136 1185,1135 1149,1133Z" style="fill:rgb(153,255,153);fill-rule:nonzero;"/>
            </g>
        </g>
    </g>
</svg>
